<svg width="114" height="43" viewBox="0 0 114 43" fill="none" xmlns="http://www.w3.org/2000/svg">
<path d="M12.06 36.36C13.18 36.36 14.12 36.12 14.88 35.64C15.64 35.12 16.3 34.52 16.86 33.84C16.94 33.28 17.02 32.74 17.1 32.22C17.18 31.7 17.3 31.1 17.46 30.42L20.04 19.74C19.6 19.62 19.14 19.54 18.66 19.5C18.18 19.46 17.72 19.44 17.28 19.44C15.88 19.44 14.62 19.78 13.5 20.46C12.38 21.1 11.42 21.96 10.62 23.04C9.82 24.12 9.2 25.36 8.76 26.76C8.36 28.16 8.16 29.6 8.16 31.08C8.16 32.12 8.24 32.98 8.4 33.66C8.6 34.34 8.86 34.88 9.18 35.28C9.54 35.68 9.96 35.96 10.44 36.12C10.92 36.28 11.46 36.36 12.06 36.36ZM9.36 42.66C6.72 42.62 4.64 41.68 3.12 39.84C1.6 37.96 0.84 35.24 0.84 31.68C0.84 28.96 1.3 26.46 2.22 24.18C3.14 21.9 4.4 19.96 6 18.36C7.6 16.72 9.46 15.46 11.58 14.58C13.74 13.66 16.02 13.2 18.42 13.2C20.06 13.2 21.72 13.36 23.4 13.68C25.08 14 26.78 14.5 28.5 15.18L24.78 30.48C24.62 31.2 24.5 31.92 24.42 32.64C24.34 33.32 24.3 34.02 24.3 34.74C24.3 35.9 24.4 37.04 24.6 38.16C24.84 39.24 25.14 40.32 25.5 41.4L19.02 42.48C18.94 42.32 18.84 42.12 18.72 41.88C18.6 41.64 18.48 41.38 18.36 41.1C18.24 40.82 18.14 40.58 18.06 40.38C17.98 40.14 17.92 39.96 17.88 39.84C17.08 40.44 16 41.06 14.64 41.7C13.28 42.34 11.52 42.66 9.36 42.66ZM57.54 19.2C56.74 19.88 55.68 20.84 54.36 22.08C53.08 23.28 51.66 24.64 50.1 26.16C48.54 27.64 46.92 29.22 45.24 30.9C43.56 32.58 41.96 34.24 40.44 35.88H53.94L52.44 42H29.94L31.2 37.14C32.28 35.86 33.5 34.48 34.86 33C36.26 31.48 37.7 29.96 39.18 28.44C40.7 26.88 42.2 25.38 43.68 23.94C45.16 22.46 46.54 21.12 47.82 19.92H35.64L37.14 13.8H58.8L57.54 19.2ZM91.02 13.8C89.1 16.12 86.94 18.42 84.54 20.7C82.14 22.94 79.86 24.96 77.7 26.76C78.42 27.64 79.14 28.72 79.86 30C80.62 31.24 81.36 32.56 82.08 33.96C82.8 35.36 83.46 36.76 84.06 38.16C84.66 39.56 85.16 40.84 85.56 42H77.58C77.26 41 76.84 39.86 76.32 38.58C75.8 37.3 75.24 36.02 74.64 34.74C74.04 33.46 73.42 32.26 72.78 31.14C72.14 30.02 71.52 29.1 70.92 28.38L67.68 42H60.24L69.96 1.62L77.64 0.36L71.82 24.6C72.54 24 73.38 23.26 74.34 22.38C75.3 21.5 76.28 20.58 77.28 19.62C78.28 18.62 79.24 17.62 80.16 16.62C81.12 15.58 81.94 14.64 82.62 13.8H91.02ZM113.76 23.16C113.76 24.32 113.56 25.42 113.16 26.46C112.8 27.46 112.26 28.36 111.54 29.16C110.86 29.96 110 30.6 108.96 31.08C107.96 31.52 106.84 31.74 105.6 31.74C104.32 31.74 103.18 31.52 102.18 31.08C101.18 30.6 100.32 29.96 99.6 29.16C98.92 28.36 98.38 27.46 97.98 26.46C97.62 25.42 97.44 24.32 97.44 23.16C97.44 22.04 97.62 20.96 97.98 19.92C98.38 18.88 98.92 17.96 99.6 17.16C100.32 16.36 101.18 15.74 102.18 15.3C103.18 14.82 104.32 14.58 105.6 14.58C106.84 14.58 107.96 14.82 108.96 15.3C110 15.74 110.86 16.36 111.54 17.16C112.26 17.96 112.8 18.88 113.16 19.92C113.56 20.96 113.76 22.04 113.76 23.16Z" fill="white"/>
</svg>
