<svg width="17" height="17" viewBox="0 0 17 17" fill="none" xmlns="http://www.w3.org/2000/svg">
<path d="M14.8751 9.05958C14.7636 10.2653 14.3111 11.4144 13.5705 12.3723C12.8298 13.3302 11.8317 14.0574 10.6928 14.4688C9.55399 14.8802 8.32154 14.9587 7.1397 14.6951C5.95786 14.4316 4.87551 13.837 4.0193 12.9808C3.16308 12.1245 2.56843 11.0422 2.3049 9.86035C2.04138 8.67851 2.11989 7.44606 2.53125 6.30721C2.94261 5.16836 3.66981 4.17022 4.62774 3.42958C5.58568 2.68893 6.73474 2.23642 7.94047 2.125C7.23455 3.08002 6.89486 4.25669 6.98318 5.441C7.0715 6.62531 7.58195 7.73858 8.42171 8.57834C9.26147 9.4181 10.3747 9.92856 11.5591 10.0169C12.7434 10.1052 13.92 9.7655 14.8751 9.05958Z" stroke="#98A2B3" stroke-width="2" stroke-linecap="round" stroke-linejoin="round"/>
</svg>
